<mxfile host="app.diagrams.net" agent="Mozilla/5.0 (Windows NT 10.0; Win64; x64) AppleWebKit/537.36 (KHTML, like Gecko) Chrome/136.0.0.0 Safari/537.36 Edg/136.0.0.0" version="26.2.14">
  <diagram name="Page-1" id="YBAey0Avk5Ew_RTqvc6U">
    <mxGraphModel grid="1" page="1" gridSize="10" guides="1" tooltips="1" connect="1" arrows="1" fold="1" pageScale="1" pageWidth="827" pageHeight="1169" math="0" shadow="0">
      <root>
        <mxCell id="0" />
        <mxCell id="1" parent="0" />
        <mxCell id="c51sLJ_K-G4zOCsALQQC-4" value="" style="whiteSpace=wrap;html=1;aspect=fixed;fillColor=#e1d5e7;strokeColor=#990099;" vertex="1" parent="1">
          <mxGeometry x="200" y="40" width="560" height="560" as="geometry" />
        </mxCell>
        <mxCell id="c51sLJ_K-G4zOCsALQQC-1" value="&lt;font style=&quot;font-size: 14px;&quot;&gt;Doctor&amp;nbsp;&lt;/font&gt;" style="shape=umlActor;verticalLabelPosition=bottom;verticalAlign=top;html=1;outlineConnect=0;" vertex="1" parent="1">
          <mxGeometry x="100" y="140" width="30" height="60" as="geometry" />
        </mxCell>
        <mxCell id="c51sLJ_K-G4zOCsALQQC-3" value="&lt;font style=&quot;font-size: 14px;&quot;&gt;Secretary&lt;/font&gt;" style="shape=umlActor;verticalLabelPosition=bottom;verticalAlign=top;html=1;outlineConnect=0;" vertex="1" parent="1">
          <mxGeometry x="100" y="360" width="30" height="60" as="geometry" />
        </mxCell>
        <mxCell id="c51sLJ_K-G4zOCsALQQC-5" value="Selection / choose agenda." style="ellipse;whiteSpace=wrap;html=1;strokeColor=#C3ABD0;fillColor=#B5739D;" vertex="1" parent="1">
          <mxGeometry x="330" y="100" width="205" height="50" as="geometry" />
        </mxCell>
        <mxCell id="c51sLJ_K-G4zOCsALQQC-6" value="Check and access to agenda." style="ellipse;whiteSpace=wrap;html=1;fillColor=#B5739D;strokeColor=#CDA2BE;" vertex="1" parent="1">
          <mxGeometry x="330" y="240" width="231" height="50" as="geometry" />
        </mxCell>
        <mxCell id="c51sLJ_K-G4zOCsALQQC-7" value="Manage Appointment." style="ellipse;whiteSpace=wrap;html=1;fillColor=#B5739D;strokeColor=#CDA2BE;" vertex="1" parent="1">
          <mxGeometry x="300" y="400" width="199.5" height="50" as="geometry" />
        </mxCell>
        <mxCell id="c51sLJ_K-G4zOCsALQQC-8" value="Add Appointment." style="ellipse;whiteSpace=wrap;html=1;fillColor=#CDA2BE;strokeColor=#B5739D;" vertex="1" parent="1">
          <mxGeometry x="560" y="320" width="140" height="50" as="geometry" />
        </mxCell>
        <mxCell id="c51sLJ_K-G4zOCsALQQC-9" value="Modify Appointment." style="ellipse;whiteSpace=wrap;html=1;strokeColor=#B5739D;fillColor=#CDA2BE;" vertex="1" parent="1">
          <mxGeometry x="560" y="380" width="140" height="50" as="geometry" />
        </mxCell>
        <mxCell id="c51sLJ_K-G4zOCsALQQC-10" value="Cancel Appointment." style="ellipse;whiteSpace=wrap;html=1;fillColor=#CDA2BE;strokeColor=#B5739D;" vertex="1" parent="1">
          <mxGeometry x="570" y="440" width="135" height="50" as="geometry" />
        </mxCell>
        <mxCell id="c51sLJ_K-G4zOCsALQQC-11" value="" style="endArrow=none;html=1;rounded=0;entryX=0;entryY=0.5;entryDx=0;entryDy=0;" edge="1" parent="1" target="c51sLJ_K-G4zOCsALQQC-5">
          <mxGeometry width="50" height="50" relative="1" as="geometry">
            <mxPoint x="130" y="190" as="sourcePoint" />
            <mxPoint x="180" y="140" as="targetPoint" />
          </mxGeometry>
        </mxCell>
        <mxCell id="c51sLJ_K-G4zOCsALQQC-12" value="" style="endArrow=none;html=1;rounded=0;entryX=0;entryY=1;entryDx=0;entryDy=0;" edge="1" parent="1" target="c51sLJ_K-G4zOCsALQQC-5">
          <mxGeometry width="50" height="50" relative="1" as="geometry">
            <mxPoint x="130" y="410" as="sourcePoint" />
            <mxPoint x="180" y="350" as="targetPoint" />
          </mxGeometry>
        </mxCell>
        <mxCell id="c51sLJ_K-G4zOCsALQQC-15" value="Secretary choose the doctor agenda." style="edgeLabel;html=1;align=center;verticalAlign=middle;resizable=0;points=[];" connectable="0" vertex="1" parent="c51sLJ_K-G4zOCsALQQC-12">
          <mxGeometry x="0.7466" relative="1" as="geometry">
            <mxPoint y="-1" as="offset" />
          </mxGeometry>
        </mxCell>
        <mxCell id="c51sLJ_K-G4zOCsALQQC-13" value="" style="endArrow=none;html=1;rounded=0;entryX=0;entryY=1;entryDx=0;entryDy=0;" edge="1" parent="1" target="c51sLJ_K-G4zOCsALQQC-6">
          <mxGeometry width="50" height="50" relative="1" as="geometry">
            <mxPoint x="130" y="415" as="sourcePoint" />
            <mxPoint x="180" y="365" as="targetPoint" />
          </mxGeometry>
        </mxCell>
        <mxCell id="c51sLJ_K-G4zOCsALQQC-14" value="" style="endArrow=none;html=1;rounded=0;entryX=0.014;entryY=0.373;entryDx=0;entryDy=0;entryPerimeter=0;" edge="1" parent="1" target="c51sLJ_K-G4zOCsALQQC-6">
          <mxGeometry width="50" height="50" relative="1" as="geometry">
            <mxPoint x="130" y="195" as="sourcePoint" />
            <mxPoint x="180" y="145" as="targetPoint" />
          </mxGeometry>
        </mxCell>
        <mxCell id="c51sLJ_K-G4zOCsALQQC-16" value="" style="endArrow=none;html=1;rounded=0;entryX=0;entryY=0.5;entryDx=0;entryDy=0;" edge="1" parent="1" target="c51sLJ_K-G4zOCsALQQC-7">
          <mxGeometry width="50" height="50" relative="1" as="geometry">
            <mxPoint x="130" y="415" as="sourcePoint" />
            <mxPoint x="180" y="365" as="targetPoint" />
          </mxGeometry>
        </mxCell>
        <mxCell id="c51sLJ_K-G4zOCsALQQC-17" value="" style="endArrow=none;html=1;rounded=0;exitX=1;exitY=0.5;exitDx=0;exitDy=0;entryX=0;entryY=0.5;entryDx=0;entryDy=0;" edge="1" parent="1" source="c51sLJ_K-G4zOCsALQQC-7" target="c51sLJ_K-G4zOCsALQQC-8">
          <mxGeometry width="50" height="50" relative="1" as="geometry">
            <mxPoint x="485" y="400" as="sourcePoint" />
            <mxPoint x="535" y="350" as="targetPoint" />
          </mxGeometry>
        </mxCell>
        <mxCell id="c51sLJ_K-G4zOCsALQQC-18" value="" style="endArrow=none;html=1;rounded=0;exitX=1;exitY=0.5;exitDx=0;exitDy=0;entryX=0;entryY=0.5;entryDx=0;entryDy=0;" edge="1" parent="1" source="c51sLJ_K-G4zOCsALQQC-7" target="c51sLJ_K-G4zOCsALQQC-9">
          <mxGeometry width="50" height="50" relative="1" as="geometry">
            <mxPoint x="480" y="417" as="sourcePoint" />
            <mxPoint x="570" y="355" as="targetPoint" />
          </mxGeometry>
        </mxCell>
        <mxCell id="c51sLJ_K-G4zOCsALQQC-19" value="" style="endArrow=none;html=1;rounded=0;entryX=0;entryY=0.5;entryDx=0;entryDy=0;exitX=1;exitY=0.5;exitDx=0;exitDy=0;" edge="1" parent="1" source="c51sLJ_K-G4zOCsALQQC-7" target="c51sLJ_K-G4zOCsALQQC-10">
          <mxGeometry width="50" height="50" relative="1" as="geometry">
            <mxPoint x="510" y="510" as="sourcePoint" />
            <mxPoint x="560" y="460" as="targetPoint" />
          </mxGeometry>
        </mxCell>
        <mxCell id="c51sLJ_K-G4zOCsALQQC-20" value="&lt;font style=&quot;font-size: 14px;&quot;&gt;USE CASE DIAGRAM&amp;nbsp; : &lt;i&gt;Users&#39; interaction with the system.&lt;/i&gt;&lt;/font&gt;" style="text;html=1;align=center;verticalAlign=middle;whiteSpace=wrap;rounded=0;" vertex="1" parent="1">
          <mxGeometry x="290" y="50" width="400" height="30" as="geometry" />
        </mxCell>
      </root>
    </mxGraphModel>
  </diagram>
</mxfile>
